<mxfile host="app.diagrams.net" modified="2020-05-29T07:49:31.481Z" agent="5.0 (Windows NT 10.0; Win64; x64) AppleWebKit/537.36 (KHTML, like Gecko) Chrome/83.0.4103.61 Safari/537.36 Edg/83.0.478.37" etag="fbLvUcLUt16GVyEuLTc7" version="13.1.6" type="github">
  <diagram id="Z1raAA6gh114MOupmUsH" name="Page-1">
    <mxGraphModel dx="782" dy="430" grid="1" gridSize="10" guides="1" tooltips="1" connect="1" arrows="1" fold="1" page="1" pageScale="1" pageWidth="850" pageHeight="1100" math="0" shadow="0">
      <root>
        <mxCell id="0" />
        <mxCell id="1" parent="0" />
        <mxCell id="UJpPWXgscfE9Nbg8LadJ-1" value="" style="ellipse;whiteSpace=wrap;html=1;" parent="1" vertex="1">
          <mxGeometry x="340" y="30" width="110" height="30" as="geometry" />
        </mxCell>
        <mxCell id="stwm3qR8TZIVsBcd-epi-31" value="" style="edgeStyle=orthogonalEdgeStyle;rounded=0;orthogonalLoop=1;jettySize=auto;html=1;" parent="1" source="UJpPWXgscfE9Nbg8LadJ-2" target="stwm3qR8TZIVsBcd-epi-28" edge="1">
          <mxGeometry relative="1" as="geometry" />
        </mxCell>
        <mxCell id="UJpPWXgscfE9Nbg8LadJ-2" value="START" style="text;html=1;strokeColor=none;fillColor=none;align=center;verticalAlign=middle;whiteSpace=wrap;rounded=0;" parent="1" vertex="1">
          <mxGeometry x="375" y="35" width="40" height="20" as="geometry" />
        </mxCell>
        <mxCell id="stwm3qR8TZIVsBcd-epi-17" value="" style="edgeStyle=orthogonalEdgeStyle;rounded=0;orthogonalLoop=1;jettySize=auto;html=1;entryX=0.5;entryY=0;entryDx=0;entryDy=0;" parent="1" source="UJpPWXgscfE9Nbg8LadJ-14" edge="1">
          <mxGeometry relative="1" as="geometry">
            <mxPoint x="395" y="318" as="targetPoint" />
          </mxGeometry>
        </mxCell>
        <mxCell id="UJpPWXgscfE9Nbg8LadJ-14" value="" style="rounded=0;whiteSpace=wrap;html=1;" parent="1" vertex="1">
          <mxGeometry x="346.25" y="206" width="97.5" height="54" as="geometry" />
        </mxCell>
        <mxCell id="UJpPWXgscfE9Nbg8LadJ-19" value="View Customer Orders" style="text;html=1;strokeColor=none;fillColor=none;align=center;verticalAlign=middle;whiteSpace=wrap;rounded=0;" parent="1" vertex="1">
          <mxGeometry x="350" y="223" width="90" height="20" as="geometry" />
        </mxCell>
        <mxCell id="stwm3qR8TZIVsBcd-epi-15" value="" style="edgeStyle=orthogonalEdgeStyle;rounded=0;orthogonalLoop=1;jettySize=auto;html=1;" parent="1" source="stwm3qR8TZIVsBcd-epi-5" target="stwm3qR8TZIVsBcd-epi-7" edge="1">
          <mxGeometry relative="1" as="geometry" />
        </mxCell>
        <mxCell id="stwm3qR8TZIVsBcd-epi-5" value="" style="rounded=0;whiteSpace=wrap;html=1;shadow=1;" parent="1" vertex="1">
          <mxGeometry x="346.25" y="440" width="97.5" height="54" as="geometry" />
        </mxCell>
        <mxCell id="stwm3qR8TZIVsBcd-epi-6" value="Bill Sent to Customer" style="text;html=1;strokeColor=none;fillColor=none;align=center;verticalAlign=middle;whiteSpace=wrap;rounded=0;shadow=1;" parent="1" vertex="1">
          <mxGeometry x="350" y="457" width="90" height="20" as="geometry" />
        </mxCell>
        <mxCell id="LsZDqBqnOP4JnVnYVQKs-15" value="" style="edgeStyle=orthogonalEdgeStyle;rounded=0;orthogonalLoop=1;jettySize=auto;html=1;" edge="1" parent="1" source="stwm3qR8TZIVsBcd-epi-7">
          <mxGeometry relative="1" as="geometry">
            <mxPoint x="395" y="700" as="targetPoint" />
          </mxGeometry>
        </mxCell>
        <mxCell id="LsZDqBqnOP4JnVnYVQKs-19" value="" style="edgeStyle=orthogonalEdgeStyle;rounded=0;orthogonalLoop=1;jettySize=auto;html=1;" edge="1" parent="1" source="stwm3qR8TZIVsBcd-epi-7">
          <mxGeometry relative="1" as="geometry">
            <mxPoint x="515" y="580" as="targetPoint" />
          </mxGeometry>
        </mxCell>
        <mxCell id="stwm3qR8TZIVsBcd-epi-7" value="" style="rhombus;whiteSpace=wrap;html=1;shadow=1;" parent="1" vertex="1">
          <mxGeometry x="355" y="540" width="80" height="80" as="geometry" />
        </mxCell>
        <mxCell id="stwm3qR8TZIVsBcd-epi-26" value="" style="edgeStyle=orthogonalEdgeStyle;rounded=0;orthogonalLoop=1;jettySize=auto;html=1;" parent="1" source="stwm3qR8TZIVsBcd-epi-24" edge="1">
          <mxGeometry relative="1" as="geometry">
            <mxPoint x="395" y="440" as="targetPoint" />
          </mxGeometry>
        </mxCell>
        <mxCell id="stwm3qR8TZIVsBcd-epi-24" value="" style="shape=parallelogram;perimeter=parallelogramPerimeter;whiteSpace=wrap;html=1;shadow=1;" parent="1" vertex="1">
          <mxGeometry x="335" y="320" width="120" height="60" as="geometry" />
        </mxCell>
        <mxCell id="stwm3qR8TZIVsBcd-epi-27" value="Bill the Order" style="text;html=1;strokeColor=none;fillColor=none;align=center;verticalAlign=middle;whiteSpace=wrap;rounded=0;shadow=1;" parent="1" vertex="1">
          <mxGeometry x="350" y="340" width="90" height="20" as="geometry" />
        </mxCell>
        <mxCell id="stwm3qR8TZIVsBcd-epi-30" value="" style="edgeStyle=orthogonalEdgeStyle;rounded=0;orthogonalLoop=1;jettySize=auto;html=1;" parent="1" source="stwm3qR8TZIVsBcd-epi-28" edge="1">
          <mxGeometry relative="1" as="geometry">
            <mxPoint x="395" y="210" as="targetPoint" />
          </mxGeometry>
        </mxCell>
        <mxCell id="stwm3qR8TZIVsBcd-epi-28" value="" style="shape=parallelogram;perimeter=parallelogramPerimeter;whiteSpace=wrap;html=1;shadow=1;" parent="1" vertex="1">
          <mxGeometry x="335" y="90" width="120" height="60" as="geometry" />
        </mxCell>
        <mxCell id="stwm3qR8TZIVsBcd-epi-29" value="Login" style="text;html=1;strokeColor=none;fillColor=none;align=center;verticalAlign=middle;whiteSpace=wrap;rounded=0;" parent="1" vertex="1">
          <mxGeometry x="375" y="110" width="40" height="20" as="geometry" />
        </mxCell>
        <mxCell id="stwm3qR8TZIVsBcd-epi-52" value="If Customer Accepts" style="text;html=1;strokeColor=none;fillColor=none;align=center;verticalAlign=middle;whiteSpace=wrap;rounded=0;shadow=1;" parent="1" vertex="1">
          <mxGeometry x="375" y="570" width="40" height="20" as="geometry" />
        </mxCell>
        <mxCell id="LsZDqBqnOP4JnVnYVQKs-3" value="" style="edgeStyle=orthogonalEdgeStyle;rounded=0;orthogonalLoop=1;jettySize=auto;html=1;" edge="1" parent="1" source="LsZDqBqnOP4JnVnYVQKs-4">
          <mxGeometry relative="1" as="geometry">
            <mxPoint x="395" y="970" as="targetPoint" />
          </mxGeometry>
        </mxCell>
        <mxCell id="LsZDqBqnOP4JnVnYVQKs-4" value="" style="rounded=0;whiteSpace=wrap;html=1;shadow=1;" vertex="1" parent="1">
          <mxGeometry x="345" y="840" width="100" height="50" as="geometry" />
        </mxCell>
        <mxCell id="LsZDqBqnOP4JnVnYVQKs-5" value="" style="edgeStyle=orthogonalEdgeStyle;rounded=0;orthogonalLoop=1;jettySize=auto;html=1;" edge="1" parent="1">
          <mxGeometry relative="1" as="geometry">
            <mxPoint x="395" y="1110" as="targetPoint" />
            <mxPoint x="395" y="1030" as="sourcePoint" />
          </mxGeometry>
        </mxCell>
        <mxCell id="LsZDqBqnOP4JnVnYVQKs-6" value="" style="rounded=0;whiteSpace=wrap;html=1;shadow=1;" vertex="1" parent="1">
          <mxGeometry x="335" y="1110" width="120" height="60" as="geometry" />
        </mxCell>
        <mxCell id="LsZDqBqnOP4JnVnYVQKs-7" value="" style="edgeStyle=orthogonalEdgeStyle;rounded=0;orthogonalLoop=1;jettySize=auto;html=1;exitX=0.5;exitY=1;exitDx=0;exitDy=0;" edge="1" parent="1" source="LsZDqBqnOP4JnVnYVQKs-6">
          <mxGeometry relative="1" as="geometry">
            <mxPoint x="395" y="1180" as="sourcePoint" />
            <mxPoint x="395" y="1230" as="targetPoint" />
          </mxGeometry>
        </mxCell>
        <mxCell id="LsZDqBqnOP4JnVnYVQKs-8" value="Ready For Delivery Message sent to Customer" style="text;html=1;strokeColor=none;fillColor=none;align=center;verticalAlign=middle;whiteSpace=wrap;rounded=0;shadow=1;" vertex="1" parent="1">
          <mxGeometry x="350" y="1130" width="90" height="20" as="geometry" />
        </mxCell>
        <mxCell id="LsZDqBqnOP4JnVnYVQKs-9" value="" style="ellipse;whiteSpace=wrap;html=1;shadow=1;" vertex="1" parent="1">
          <mxGeometry x="340" y="1230" width="115" height="50" as="geometry" />
        </mxCell>
        <mxCell id="LsZDqBqnOP4JnVnYVQKs-10" value="EXIT" style="text;html=1;strokeColor=none;fillColor=none;align=center;verticalAlign=middle;whiteSpace=wrap;rounded=0;shadow=1;" vertex="1" parent="1">
          <mxGeometry x="377.5" y="1245" width="40" height="20" as="geometry" />
        </mxCell>
        <mxCell id="LsZDqBqnOP4JnVnYVQKs-11" value="TOKEN IS GENERATED" style="text;html=1;strokeColor=none;fillColor=none;align=center;verticalAlign=middle;whiteSpace=wrap;rounded=0;shadow=1;" vertex="1" parent="1">
          <mxGeometry x="375" y="855" width="40" height="20" as="geometry" />
        </mxCell>
        <mxCell id="LsZDqBqnOP4JnVnYVQKs-12" value="" style="rounded=0;whiteSpace=wrap;html=1;" vertex="1" parent="1">
          <mxGeometry x="335" y="970" width="120" height="60" as="geometry" />
        </mxCell>
        <mxCell id="LsZDqBqnOP4JnVnYVQKs-13" value="Order Gets Packed" style="text;html=1;strokeColor=none;fillColor=none;align=center;verticalAlign=middle;whiteSpace=wrap;rounded=0;shadow=1;" vertex="1" parent="1">
          <mxGeometry x="350" y="990" width="90" height="20" as="geometry" />
        </mxCell>
        <mxCell id="LsZDqBqnOP4JnVnYVQKs-17" value="YES" style="text;html=1;strokeColor=none;fillColor=none;align=center;verticalAlign=middle;whiteSpace=wrap;rounded=0;" vertex="1" parent="1">
          <mxGeometry x="395" y="650" width="40" height="20" as="geometry" />
        </mxCell>
        <mxCell id="LsZDqBqnOP4JnVnYVQKs-21" value="NO" style="text;html=1;strokeColor=none;fillColor=none;align=center;verticalAlign=middle;whiteSpace=wrap;rounded=0;" vertex="1" parent="1">
          <mxGeometry x="455" y="560" width="40" height="20" as="geometry" />
        </mxCell>
        <mxCell id="LsZDqBqnOP4JnVnYVQKs-24" value="" style="edgeStyle=elbowEdgeStyle;elbow=vertical;endArrow=classic;html=1;exitX=0.5;exitY=1;exitDx=0;exitDy=0;entryX=1;entryY=0.5;entryDx=0;entryDy=0;" edge="1" parent="1" target="LsZDqBqnOP4JnVnYVQKs-9">
          <mxGeometry width="50" height="50" relative="1" as="geometry">
            <mxPoint x="580" y="610" as="sourcePoint" />
            <mxPoint x="580" y="1290" as="targetPoint" />
            <Array as="points">
              <mxPoint x="630" y="1255" />
            </Array>
          </mxGeometry>
        </mxCell>
      </root>
    </mxGraphModel>
  </diagram>
</mxfile>
